<?xml version="1.0" encoding="UTF-8" standalone="no"?>
<!-- Created with matplotlib (http://matplotlib.org/) -->

<svg
   xmlns:dc="http://purl.org/dc/elements/1.1/"
   xmlns:cc="http://creativecommons.org/ns#"
   xmlns:rdf="http://www.w3.org/1999/02/22-rdf-syntax-ns#"
   xmlns:svg="http://www.w3.org/2000/svg"
   xmlns="http://www.w3.org/2000/svg"
   xmlns:xlink="http://www.w3.org/1999/xlink"
   xmlns:sodipodi="http://sodipodi.sourceforge.net/DTD/sodipodi-0.dtd"
   xmlns:inkscape="http://www.inkscape.org/namespaces/inkscape"
   height="90pt"
   version="1.1"
   viewBox="0 0 550 90"
   width="550pt"
   id="svg4410"
   inkscape:version="0.91 r13725"
   sodipodi:docname="colorbar_anom.svg">
  <metadata
     id="metadata4644">
    <rdf:RDF>
      <cc:Work
         rdf:about="">
        <dc:format>image/svg+xml</dc:format>
        <dc:type
           rdf:resource="http://purl.org/dc/dcmitype/StillImage" />
      </cc:Work>
    </rdf:RDF>
  </metadata>
  <sodipodi:namedview
     pagecolor="#ffffff"
     bordercolor="#666666"
     borderopacity="1"
     objecttolerance="10"
     gridtolerance="10"
     guidetolerance="10"
     inkscape:pageopacity="0"
     inkscape:pageshadow="2"
     inkscape:window-width="1855"
     inkscape:window-height="1176"
     id="namedview4642"
     showgrid="false"
     inkscape:snap-grids="false"
     inkscape:zoom="1.616307"
     inkscape:cx="140.53499"
     inkscape:cy="53"
     inkscape:window-x="1431"
     inkscape:window-y="24"
     inkscape:window-maximized="1"
     inkscape:current-layer="QuadMesh_1" />
  <defs
     id="defs4412">
    <style
       type="text/css"
       id="style4414">
*{stroke-linecap:butt;stroke-linejoin:round;stroke-miterlimit:100000;}
  </style>
  </defs>
  <g
     id="figure_1">
    <g
       id="patch_1">
      <path
         d="M 0 90.494375  L 550.81875 90.494375  L 550.81875 0  L 0 0  z "
         style="fill:#ffffff;"
         id="path4418" />
    </g>
    <g
       id="axes_1">
      <g
         id="patch_2"
         style="fill:#000000;stroke-linecap:butt;stroke-linejoin:round;stroke-miterlimit:100000"
         transform="matrix(0.59996181,0,0,1,10.088463,0)"
         inkscape:export-xdpi="300"
         inkscape:export-ydpi="300">
        <path
           clip-path="url(#p35e252126a)"
           d="m 25.21875,39.6 51.84,0 414.72,0 51.84,0 0,-32.4 -51.84,0 -414.72,0 -51.84,0 z"
           style="fill:#cccccc;stroke:none;stroke-width:0.01;stroke-linecap:butt;stroke-linejoin:miter;stroke-miterlimit:100000"
           id="path4422"
           inkscape:connector-curvature="0" />
      </g>
      <g
         id="matplotlib.axis_1"
         inkscape:export-xdpi="300"
         inkscape:export-ydpi="300">
        <g
           id="xtick_1">
          <g
             id="line2d_1">
            <defs
               id="defs4427">
              <path
                 d="M 0 0  L 0 0  "
                 id="m366a6406b3"
                 style="stroke:#262626;" />
            </defs>
            <g
               id="g4430">
              <use
                 style="fill:#262626;stroke:#262626;"
                 x="25.21875"
                 xlink:href="#m366a6406b3"
                 y="39.6"
                 id="use4432" />
            </g>
          </g>
          <g
             id="text_1">
            <!-- −200 -->
            <defs
               id="defs4435">
              <path
                 d="M 4.9375 29.6875  L 4.9375 36.8125  L 53.515625 36.8125  L 53.515625 29.6875  z "
                 id="LiberationSans-2212" />
              <path
                 d="M 5.03125 0  L 5.03125 6.203125  Q 7.515625 11.921875 11.109375 16.28125  Q 14.703125 20.65625 18.65625 24.1875  Q 22.609375 27.734375 26.484375 30.765625  Q 30.375 33.796875 33.5 36.8125  Q 36.625 39.84375 38.546875 43.15625  Q 40.484375 46.484375 40.484375 50.6875  Q 40.484375 53.609375 39.59375 55.828125  Q 38.71875 58.0625 37.0625 59.5625  Q 35.40625 61.078125 33.078125 61.828125  Q 30.765625 62.59375 27.9375 62.59375  Q 25.296875 62.59375 22.96875 61.859375  Q 20.65625 61.140625 18.84375 59.671875  Q 17.046875 58.203125 15.890625 56.03125  Q 14.75 53.859375 14.40625 50.984375  L 5.421875 51.8125  Q 5.859375 55.515625 7.46875 58.78125  Q 9.078125 62.0625 11.90625 64.53125  Q 14.75 67 18.71875 68.40625  Q 22.703125 69.828125 27.9375 69.828125  Q 33.0625 69.828125 37.0625 68.609375  Q 41.0625 67.390625 43.8125 64.984375  Q 46.578125 62.59375 48.046875 59.078125  Q 49.515625 55.5625 49.515625 50.984375  Q 49.515625 47.515625 48.265625 44.390625  Q 47.015625 41.265625 44.9375 38.421875  Q 42.875 35.59375 40.140625 32.953125  Q 37.40625 30.328125 34.421875 27.8125  Q 31.453125 25.296875 28.421875 22.828125  Q 25.390625 20.359375 22.71875 17.859375  Q 20.0625 15.375 17.96875 12.8125  Q 15.875 10.25 14.703125 7.46875  L 50.59375 7.46875  L 50.59375 0  z "
                 id="LiberationSans-32" />
              <path
                 d="M 51.703125 34.421875  Q 51.703125 24.515625 49.828125 17.75  Q 47.953125 10.984375 44.703125 6.8125  Q 41.453125 2.640625 37.0625 0.828125  Q 32.671875 -0.984375 27.6875 -0.984375  Q 22.65625 -0.984375 18.3125 0.828125  Q 13.96875 2.640625 10.765625 6.78125  Q 7.5625 10.9375 5.734375 17.703125  Q 3.90625 24.46875 3.90625 34.421875  Q 3.90625 44.828125 5.734375 51.640625  Q 7.5625 58.453125 10.78125 62.5  Q 14.015625 66.546875 18.40625 68.1875  Q 22.796875 69.828125 27.984375 69.828125  Q 32.90625 69.828125 37.21875 68.1875  Q 41.546875 66.546875 44.765625 62.5  Q 48 58.453125 49.84375 51.640625  Q 51.703125 44.828125 51.703125 34.421875  M 42.78125 34.421875  Q 42.78125 42.625 41.796875 48.0625  Q 40.828125 53.515625 38.921875 56.765625  Q 37.015625 60.015625 34.25 61.359375  Q 31.5 62.703125 27.984375 62.703125  Q 24.265625 62.703125 21.4375 61.328125  Q 18.609375 59.96875 16.671875 56.71875  Q 14.75 53.46875 13.765625 48.015625  Q 12.796875 42.578125 12.796875 34.421875  Q 12.796875 26.515625 13.796875 21.09375  Q 14.796875 15.671875 16.71875 12.375  Q 18.65625 9.078125 21.4375 7.640625  Q 24.21875 6.203125 27.78125 6.203125  Q 31.25 6.203125 34.03125 7.640625  Q 36.8125 9.078125 38.734375 12.375  Q 40.671875 15.671875 41.71875 21.09375  Q 42.78125 26.515625 42.78125 34.421875  "
                 id="LiberationSans-30" />
            </defs>
            <g
               style="fill:#262626;"
               transform="translate(7.2 58.195)scale(0.16 -0.16)"
               id="g4440">
              <use
                 xlink:href="#LiberationSans-2212"
                 id="use4442" />
              <use
                 x="58.3984375"
                 xlink:href="#LiberationSans-32"
                 id="use4444" />
              <use
                 x="114.013671875"
                 xlink:href="#LiberationSans-30"
                 id="use4446" />
              <use
                 x="169.62890625"
                 xlink:href="#LiberationSans-30"
                 id="use4448" />
            </g>
          </g>
        </g>
        <g
           id="xtick_2">
          <g
             id="line2d_2">
            <g
               id="g4452">
              <use
                 style="fill:#262626;stroke:#262626;"
                 x="77.05875"
                 xlink:href="#m366a6406b3"
                 y="39.6"
                 id="use4454" />
            </g>
          </g>
          <g
             id="text_2">
            <!-- −160 -->
            <defs
               id="defs4457">
              <path
                 d="M 51.21875 22.515625  Q 51.21875 17.328125 49.78125 13  Q 48.34375 8.6875 45.53125 5.578125  Q 42.71875 2.484375 38.5625 0.75  Q 34.421875 -0.984375 29 -0.984375  Q 23 -0.984375 18.5 1.3125  Q 14.015625 3.609375 11.03125 7.921875  Q 8.0625 12.25 6.5625 18.53125  Q 5.078125 24.8125 5.078125 32.8125  Q 5.078125 42 6.765625 48.921875  Q 8.453125 55.859375 11.625 60.5  Q 14.796875 65.140625 19.359375 67.484375  Q 23.921875 69.828125 29.6875 69.828125  Q 33.203125 69.828125 36.28125 69.09375  Q 39.359375 68.359375 41.875 66.71875  Q 44.390625 65.09375 46.28125 62.40625  Q 48.1875 59.71875 49.3125 55.8125  L 40.921875 54.296875  Q 39.546875 58.734375 36.546875 60.71875  Q 33.546875 62.703125 29.59375 62.703125  Q 25.984375 62.703125 23.046875 60.984375  Q 20.125 59.28125 18.0625 55.875  Q 16.015625 52.484375 14.90625 47.359375  Q 13.8125 42.234375 13.8125 35.40625  Q 16.21875 39.84375 20.5625 42.15625  Q 24.90625 44.484375 30.515625 44.484375  Q 35.203125 44.484375 39.015625 42.96875  Q 42.828125 41.453125 45.53125 38.59375  Q 48.25 35.75 49.734375 31.671875  Q 51.21875 27.59375 51.21875 22.515625  M 42.28125 22.125  Q 42.28125 25.6875 41.40625 28.5625  Q 40.53125 31.453125 38.765625 33.46875  Q 37.015625 35.5 34.421875 36.59375  Q 31.84375 37.703125 28.421875 37.703125  Q 26.03125 37.703125 23.578125 36.984375  Q 21.140625 36.28125 19.15625 34.6875  Q 17.1875 33.109375 15.9375 30.515625  Q 14.703125 27.9375 14.703125 24.21875  Q 14.703125 20.40625 15.671875 17.109375  Q 16.65625 13.8125 18.484375 11.375  Q 20.3125 8.9375 22.890625 7.515625  Q 25.484375 6.109375 28.71875 6.109375  Q 31.890625 6.109375 34.40625 7.203125  Q 36.921875 8.296875 38.671875 10.375  Q 40.4375 12.453125 41.359375 15.421875  Q 42.28125 18.40625 42.28125 22.125  "
                 id="LiberationSans-36" />
              <path
                 d="M 7.625 0  L 7.625 7.46875  L 25.140625 7.46875  L 25.140625 60.40625  L 9.625 49.3125  L 9.625 57.625  L 25.875 68.796875  L 33.984375 68.796875  L 33.984375 7.46875  L 50.734375 7.46875  L 50.734375 0  z "
                 id="LiberationSans-31" />
            </defs>
            <g
               style="fill:#262626;"
               transform="translate(59.04 58.195)scale(0.16 -0.16)"
               id="g4461">
              <use
                 xlink:href="#LiberationSans-2212"
                 id="use4463" />
              <use
                 x="58.3984375"
                 xlink:href="#LiberationSans-31"
                 id="use4465" />
              <use
                 x="114.013671875"
                 xlink:href="#LiberationSans-36"
                 id="use4467" />
              <use
                 x="169.62890625"
                 xlink:href="#LiberationSans-30"
                 id="use4469" />
            </g>
          </g>
        </g>
        <g
           id="xtick_3">
          <g
             id="line2d_3">
            <g
               id="g4473">
              <use
                 style="fill:#262626;stroke:#262626;"
                 x="128.89875"
                 xlink:href="#m366a6406b3"
                 y="39.6"
                 id="use4475" />
            </g>
          </g>
          <g
             id="text_3">
            <!-- −120 -->
            <g
               style="fill:#262626;"
               transform="translate(110.88 58.195)scale(0.16 -0.16)"
               id="g4478">
              <use
                 xlink:href="#LiberationSans-2212"
                 id="use4480" />
              <use
                 x="58.3984375"
                 xlink:href="#LiberationSans-31"
                 id="use4482" />
              <use
                 x="114.013671875"
                 xlink:href="#LiberationSans-32"
                 id="use4484" />
              <use
                 x="169.62890625"
                 xlink:href="#LiberationSans-30"
                 id="use4486" />
            </g>
          </g>
        </g>
        <g
           id="xtick_4">
          <g
             id="line2d_4">
            <g
               id="g4490">
              <use
                 style="fill:#262626;stroke:#262626;"
                 x="180.73875"
                 xlink:href="#m366a6406b3"
                 y="39.6"
                 id="use4492" />
            </g>
          </g>
          <g
             id="text_4">
            <!-- −80 -->
            <defs
               id="defs4495">
              <path
                 d="M 51.265625 19.1875  Q 51.265625 14.796875 49.875 11.109375  Q 48.484375 7.421875 45.625 4.734375  Q 42.78125 2.046875 38.328125 0.53125  Q 33.890625 -0.984375 27.828125 -0.984375  Q 21.78125 -0.984375 17.359375 0.53125  Q 12.9375 2.046875 10.03125 4.703125  Q 7.125 7.375 5.734375 11.0625  Q 4.34375 14.75 4.34375 19.09375  Q 4.34375 22.859375 5.484375 25.78125  Q 6.640625 28.71875 8.5625 30.828125  Q 10.5 32.953125 12.96875 34.25  Q 15.4375 35.546875 18.0625 35.984375  L 18.0625 36.1875  Q 15.1875 36.859375 12.90625 38.375  Q 10.640625 39.890625 9.09375 42.015625  Q 7.5625 44.140625 6.75 46.71875  Q 5.953125 49.3125 5.953125 52.203125  Q 5.953125 55.8125 7.34375 59  Q 8.734375 62.203125 11.46875 64.625  Q 14.203125 67.046875 18.25 68.4375  Q 22.3125 69.828125 27.640625 69.828125  Q 33.25 69.828125 37.375 68.40625  Q 41.5 67 44.203125 64.578125  Q 46.921875 62.15625 48.234375 58.9375  Q 49.5625 55.71875 49.5625 52.09375  Q 49.5625 49.265625 48.75 46.671875  Q 47.953125 44.09375 46.40625 41.96875  Q 44.875 39.84375 42.59375 38.34375  Q 40.328125 36.859375 37.359375 36.28125  L 37.359375 36.078125  Q 40.328125 35.59375 42.859375 34.296875  Q 45.40625 33.015625 47.265625 30.890625  Q 49.125 28.765625 50.1875 25.828125  Q 51.265625 22.90625 51.265625 19.1875  M 40.4375 51.609375  Q 40.4375 54.203125 39.765625 56.34375  Q 39.109375 58.5 37.59375 60.03125  Q 36.078125 61.578125 33.640625 62.421875  Q 31.203125 63.28125 27.640625 63.28125  Q 24.171875 63.28125 21.78125 62.421875  Q 19.390625 61.578125 17.84375 60.03125  Q 16.3125 58.5 15.625 56.34375  Q 14.9375 54.203125 14.9375 51.609375  Q 14.9375 49.5625 15.46875 47.40625  Q 16.015625 45.265625 17.421875 43.5  Q 18.84375 41.75 21.328125 40.625  Q 23.828125 39.5 27.734375 39.5  Q 31.890625 39.5 34.40625 40.625  Q 36.921875 41.75 38.25 43.5  Q 39.59375 45.265625 40.015625 47.40625  Q 40.4375 49.5625 40.4375 51.609375  M 42.140625 20.015625  Q 42.140625 22.515625 41.453125 24.828125  Q 40.765625 27.15625 39.109375 28.9375  Q 37.453125 30.71875 34.640625 31.8125  Q 31.84375 32.90625 27.640625 32.90625  Q 23.78125 32.90625 21.0625 31.8125  Q 18.359375 30.71875 16.671875 28.90625  Q 14.984375 27.09375 14.203125 24.71875  Q 13.421875 22.359375 13.421875 19.828125  Q 13.421875 16.65625 14.203125 14.03125  Q 14.984375 11.421875 16.6875 9.546875  Q 18.40625 7.671875 21.1875 6.640625  Q 23.96875 5.609375 27.9375 5.609375  Q 31.9375 5.609375 34.671875 6.640625  Q 37.40625 7.671875 39.0625 9.546875  Q 40.71875 11.421875 41.421875 14.078125  Q 42.140625 16.75 42.140625 20.015625  "
                 id="LiberationSans-38" />
            </defs>
            <g
               style="fill:#262626;"
               transform="translate(167.16875 58.195)scale(0.16 -0.16)"
               id="g4498">
              <use
                 xlink:href="#LiberationSans-2212"
                 id="use4500" />
              <use
                 x="58.3984375"
                 xlink:href="#LiberationSans-38"
                 id="use4502" />
              <use
                 x="114.013671875"
                 xlink:href="#LiberationSans-30"
                 id="use4504" />
            </g>
          </g>
        </g>
        <g
           id="xtick_5">
          <g
             id="line2d_5">
            <g
               id="g4508">
              <use
                 style="fill:#262626;stroke:#262626;"
                 x="232.57875"
                 xlink:href="#m366a6406b3"
                 y="39.6"
                 id="use4510" />
            </g>
          </g>
          <g
             id="text_5">
            <!-- −40 -->
            <defs
               id="defs4513">
              <path
                 d="M 43.015625 15.578125  L 43.015625 0  L 34.71875 0  L 34.71875 15.578125  L 2.296875 15.578125  L 2.296875 22.40625  L 33.796875 68.796875  L 43.015625 68.796875  L 43.015625 22.515625  L 52.6875 22.515625  L 52.6875 15.578125  z M 34.71875 58.890625  Q 34.625 58.640625 34.234375 57.9375  Q 33.84375 57.234375 33.34375 56.34375  Q 32.859375 55.46875 32.34375 54.5625  Q 31.84375 53.65625 31.453125 53.078125  L 13.8125 27.09375  Q 13.578125 26.703125 13.109375 26.0625  Q 12.640625 25.4375 12.15625 24.78125  Q 11.671875 24.125 11.171875 23.484375  Q 10.6875 22.859375 10.40625 22.515625  L 34.71875 22.515625  z "
                 id="LiberationSans-34" />
            </defs>
            <g
               style="fill:#262626;"
               transform="translate(219.00875 58.195)scale(0.16 -0.16)"
               id="g4516">
              <use
                 xlink:href="#LiberationSans-2212"
                 id="use4518" />
              <use
                 x="58.3984375"
                 xlink:href="#LiberationSans-34"
                 id="use4520" />
              <use
                 x="114.013671875"
                 xlink:href="#LiberationSans-30"
                 id="use4522" />
            </g>
          </g>
        </g>
        <g
           id="xtick_6">
          <g
             id="line2d_6">
            <g
               id="g4526">
              <use
                 style="fill:#262626;stroke:#262626;"
                 x="284.41875"
                 xlink:href="#m366a6406b3"
                 y="39.6"
                 id="use4528" />
            </g>
          </g>
          <g
             id="text_6">
            <!-- 0 -->
            <g
               style="fill:#262626;"
               transform="translate(279.97 58.195)scale(0.16 -0.16)"
               id="g4531">
              <use
                 xlink:href="#LiberationSans-30"
                 id="use4533" />
            </g>
          </g>
        </g>
        <g
           id="xtick_7">
          <g
             id="line2d_7">
            <g
               id="g4537">
              <use
                 style="fill:#262626;stroke:#262626;"
                 x="336.25875"
                 xlink:href="#m366a6406b3"
                 y="39.6"
                 id="use4539" />
            </g>
          </g>
          <g
             id="text_7">
            <!-- 40 -->
            <g
               style="fill:#262626;"
               transform="translate(327.36125 58.195)scale(0.16 -0.16)"
               id="g4542">
              <use
                 xlink:href="#LiberationSans-34"
                 id="use4544" />
              <use
                 x="55.615234375"
                 xlink:href="#LiberationSans-30"
                 id="use4546" />
            </g>
          </g>
        </g>
        <g
           id="text_8"
           transform="translate(-110.4,0)"
           style="stroke-linecap:butt;stroke-linejoin:round;stroke-miterlimit:100000">
          <!-- Column O3 anomaly (DU) -->
          <defs
             id="defs4549">
            <path
               d="m 6.203125,25.984375 q 0,6.78125 1.015625,12.984375 1.03125,6.203125 3.21875,11.90625 2.203125,5.71875 5.625,11.078125 3.421875,5.375 8.15625,10.515625 l 8.5,0 Q 28.125,67.328125 24.78125,61.9375 q -3.34375,-5.390625 -5.5,-11.140625 -2.140625,-5.734375 -3.1875,-11.9375 -1.046875,-6.1875 -1.046875,-12.984375 0,-6.78125 1.046875,-12.984375 1.046875,-6.203125 3.1875,-11.96875 2.15625,-5.75 5.5,-11.125 3.34375,-5.375 7.9375,-10.5 l -8.5,0 q -4.734375,5.125 -8.15625,10.5 -3.421875,5.375 -5.625,11.078125 Q 8.25,6.59375 7.21875,12.765625 6.203125,18.953125 6.203125,25.78125 Z"
               id="LiberationSans-28"
               inkscape:connector-curvature="0"
               style="stroke-linecap:butt;stroke-linejoin:round;stroke-miterlimit:100000" />
            <path
               d="m 20.21875,-0.984375 q -7.96875,0 -11.96875,4.203125 -4,4.203125 -4,11.53125 0,5.21875 1.96875,8.5625 1.984375,3.34375 5.171875,5.25 3.203125,1.90625 7.296875,2.640625 4.109375,0.734375 8.359375,0.828125 l 11.875,0.203125 0,2.875 q 0,3.265625 -0.6875,5.5625 -0.6875,2.296875 -2.109375,3.703125 -1.40625,1.421875 -3.53125,2.078125 -2.125,0.671875 -5,0.671875 -2.546875,0 -4.59375,-0.375 -2.046875,-0.359375 -3.5625,-1.3125 -1.515625,-0.953125 -2.453125,-2.59375 -0.921875,-1.625 -1.21875,-4.125 L 6.59375,39.546875 q 0.484375,3.125 1.84375,5.734375 1.375,2.625 3.890625,4.515625 2.515625,1.90625 6.296875,2.953125 3.78125,1.0625 9.15625,1.0625 9.96875,0 14.984375,-4.578125 5.03125,-4.5625 5.03125,-13.203125 l 0,-22.75 q 0,-3.90625 1.03125,-5.890625 1.03125,-1.96875 3.90625,-1.96875 0.734375,0 1.46875,0.09375 0.734375,0.09375 1.40625,0.25 l 0,-5.46875 Q 53.953125,-0.09375 52.3125,-0.28125 q -1.625,-0.203125 -3.484375,-0.203125 -2.484375,0 -4.265625,0.65625 -1.78125,0.65625 -2.90625,2 -1.125,1.34375 -1.71875,3.3125 -0.578125,1.984375 -0.734375,4.625 l -0.28125,0 Q 37.5,7.5625 35.8125,5.515625 34.125,3.46875 31.875,2.03125 29.640625,0.59375 26.78125,-0.1875 23.921875,-0.984375 20.21875,-0.984375 m 2,6.59375 q 4.203125,0 7.34375,1.53125 3.15625,1.546875 5.21875,3.9375 2.078125,2.40625 3.109375,5.234375 1.03125,2.828125 1.03125,5.421875 l 0,4.34375 -9.625,-0.203125 q -3.21875,-0.04687 -6.125,-0.46875 Q 20.265625,25 18.0625,23.78125 15.875,22.5625 14.578125,20.359375 13.28125,18.171875 13.28125,14.59375 q 0,-4.296875 2.3125,-6.640625 2.328125,-2.34375 6.625,-2.34375"
               id="LiberationSans-61"
               inkscape:connector-curvature="0"
               style="stroke-linecap:butt;stroke-linejoin:round;stroke-miterlimit:100000" />
            <path
               d="m 15.328125,52.828125 0,-33.484375 q 0,-3.859375 0.5625,-6.453125 0.5625,-2.59375 1.828125,-4.1875 Q 19,7.125 21.0625,6.46875 23.140625,5.8125 26.21875,5.8125 q 3.125,0 5.640625,1.09375 2.515625,1.109375 4.296875,3.171875 1.78125,2.078125 2.75,5.125 0.984375,3.0625 0.984375,7.015625 l 0,30.609375 8.796875,0 0,-41.546875 q 0,-1.65625 0.01563,-3.5 Q 48.734375,5.953125 48.78125,4.3125 48.828125,2.6875 48.875,1.515625 48.921875,0.34375 48.96875,0 l -8.296875,0 q -0.04687,0.25 -0.09375,1.3125 -0.04687,1.078125 -0.125,2.46875 -0.07813,1.390625 -0.125,2.828125 Q 40.28125,8.0625 40.28125,9.03125 l -0.140625,0 Q 38.875,6.734375 37.359375,4.875 35.84375,3.03125 33.84375,1.734375 q -2,-1.296875 -4.59375,-2 -2.59375,-0.71875 -6,-0.71875 -4.40625,0 -7.578125,1.078125 -3.171875,1.078125 -5.21875,3.328125 -2.046875,2.25 -3,5.765625 Q 6.5,12.703125 6.5,17.625 l 0,35.203125 z"
               id="LiberationSans-75"
               inkscape:connector-curvature="0"
               style="stroke-linecap:butt;stroke-linejoin:round;stroke-miterlimit:100000" />
            <path
               d="m 27.09375,25.78125 q 0,-6.828125 -1.03125,-13.015625 Q 25.046875,6.59375 22.84375,0.875 q -2.1875,-5.703125 -5.609375,-11.078125 -3.421875,-5.375 -8.15625,-10.5 l -8.484375,0 q 4.578125,5.125 7.921875,10.5 3.34375,5.375 5.484375,11.125 2.15625,5.765625 3.203125,11.96875 1.0625,6.203125 1.0625,12.984375 0,6.796875 -1.0625,12.984375 Q 16.15625,45.0625 14,50.796875 11.859375,56.546875 8.515625,61.9375 5.171875,67.328125 0.59375,72.46875 l 8.484375,0 Q 13.8125,67.328125 17.234375,61.953125 20.65625,56.59375 22.84375,50.875 25.046875,45.171875 26.0625,38.96875 27.09375,32.765625 27.09375,25.984375 Z"
               id="LiberationSans-29"
               inkscape:connector-curvature="0"
               style="stroke-linecap:butt;stroke-linejoin:round;stroke-miterlimit:100000" />
            <path
               d="M 73,34.71875 Q 73,26.65625 70.671875,20.0625 68.359375,13.484375 63.96875,8.796875 59.578125,4.109375 53.21875,1.5625 46.875,-0.984375 38.8125,-0.984375 q -8.484375,0 -14.890625,2.65625 Q 17.53125,4.34375 13.28125,9.109375 9.03125,13.875 6.875,20.40625 q -2.140625,6.546875 -2.140625,14.3125 0,8.0625 2.25,14.546875 2.25,6.5 6.59375,11.0625 4.34375,4.5625 10.71875,7.03125 6.375,2.46875 14.625,2.46875 8.203125,0 14.5625,-2.5 6.375,-2.484375 10.6875,-7.078125 Q 68.5,55.671875 70.75,49.171875 73,42.671875 73,34.71875 m -9.515625,0 q 0,6.203125 -1.59375,11.28125 -1.59375,5.078125 -4.6875,8.6875 -3.09375,3.609375 -7.6875,5.5625 -4.59375,1.953125 -10.59375,1.953125 -6.15625,0 -10.796875,-1.953125 -4.640625,-1.953125 -7.75,-5.5625 Q 17.28125,51.078125 15.734375,46 q -1.53125,-5.078125 -1.53125,-11.28125 0,-6.203125 1.59375,-11.359375 1.59375,-5.140625 4.6875,-8.875 3.09375,-3.734375 7.703125,-5.8125 4.625,-2.078125 10.625,-2.078125 6.453125,0 11.109375,2.09375 4.671875,2.109375 7.671875,5.84375 3,3.734375 4.4375,8.90625 1.453125,5.171875 1.453125,11.28125"
               id="LiberationSans-4f"
               inkscape:connector-curvature="0"
               style="stroke-linecap:butt;stroke-linejoin:round;stroke-miterlimit:100000" />
            <path
               d="m 29.5,0 q -1.859375,-4.78125 -3.796875,-8.609375 -1.921875,-3.84375 -4.3125,-6.546875 Q 19,-17.875 16.0625,-19.3125 13.140625,-20.75 9.328125,-20.75 q -1.65625,0 -3.078125,0.09375 -1.421875,0.09375 -2.984375,0.4375 l 0,6.59375 q 0.9375,-0.140625 2.109375,-0.21875 1.171875,-0.07813 2,-0.07813 3.859375,0 7.171875,2.890625 3.328125,2.875 5.8125,9.171875 L 21.1875,0.25 0.25,52.828125 l 9.375,0 11.125,-29.1875 Q 21.234375,22.3125 21.984375,20.109375 22.75,17.921875 23.5,15.71875 q 0.765625,-2.1875 1.34375,-3.953125 0.59375,-1.75 0.6875,-2.1875 0.15625,0.53125 0.71875,2.109375 0.5625,1.59375 1.265625,3.546875 0.703125,1.953125 1.4375,3.953125 0.734375,2 1.21875,3.46875 l 10.359375,30.171875 9.28125,0 z"
               id="LiberationSans-79"
               inkscape:connector-curvature="0"
               style="stroke-linecap:butt;stroke-linejoin:round;stroke-miterlimit:100000" />
            <path
               d="m 35.6875,-0.984375 q -5.65625,0 -10.734375,1.515625 Q 19.875,2.046875 16.03125,5.25 12.203125,8.453125 9.953125,13.359375 7.71875,18.265625 7.71875,25 l 0,43.796875 9.328125,0 0,-43.015625 q 0,-5.21875 1.390625,-8.859375 1.390625,-3.640625 3.875,-5.9375 2.5,-2.296875 5.890625,-3.34375 3.390625,-1.046875 7.4375,-1.046875 4.015625,0 7.578125,1.0625 3.5625,1.078125 6.25,3.421875 2.6875,2.34375 4.21875,6.125 1.53125,3.796875 1.53125,9.21875 l 0,42.375 9.28125,0 0,-42.921875 Q 64.5,19 62.234375,13.9375 59.96875,8.890625 56.0625,5.5625 52.15625,2.25 46.90625,0.625 41.65625,-0.984375 35.6875,-0.984375"
               id="LiberationSans-55"
               inkscape:connector-curvature="0"
               style="stroke-linecap:butt;stroke-linejoin:round;stroke-miterlimit:100000" />
            <path
               d="m 37.5,0 0,33.5 q 0,3.859375 -0.484375,6.4375 -0.484375,2.59375 -1.640625,4.171875 -1.140625,1.59375 -3,2.25 -1.859375,0.65625 -4.546875,0.65625 -2.78125,0 -5.03125,-1.09375 Q 20.5625,44.828125 18.96875,42.75 17.390625,40.671875 16.53125,37.625 15.671875,34.578125 15.671875,30.609375 L 15.671875,0 6.9375,0 l 0,41.546875 q 0,1.671875 -0.03125,3.5 Q 6.890625,46.875 6.828125,48.5 6.78125,50.140625 6.734375,51.3125 6.6875,52.484375 6.640625,52.828125 l 8.296875,0 q 0.04687,-0.234375 0.09375,-1.3125 0.0625,-1.078125 0.125,-2.46875 0.07813,-1.390625 0.125,-2.828125 0.04687,-1.4375 0.04687,-2.421875 l 0.15625,0 q 1.171875,2.296875 2.53125,4.15625 1.375,1.859375 3.203125,3.140625 1.828125,1.296875 4.1875,2 2.375,0.71875 5.5,0.71875 6.015625,0 9.5,-2.390625 3.484375,-2.390625 4.859375,-7.625 l 0.140625,0 q 1.171875,2.296875 2.640625,4.15625 1.46875,1.859375 3.421875,3.140625 1.953125,1.296875 4.390625,2 2.4375,0.71875 5.5625,0.71875 4.015625,0 6.90625,-1.078125 2.90625,-1.078125 4.765625,-3.328125 1.859375,-2.234375 2.734375,-5.78125 0.875,-3.53125 0.875,-8.421875 l 0,-35.203125 -8.6875,0 0,33.5 q 0,3.859375 -0.484375,6.4375 -0.484375,2.59375 -1.640625,4.171875 -1.140625,1.59375 -3,2.25 -1.859375,0.65625 -4.546875,0.65625 -2.78125,0 -5.03125,-1.046875 Q 51.078125,44.921875 49.484375,42.875 47.90625,40.828125 47.046875,37.75 46.1875,34.671875 46.1875,30.609375 L 46.1875,0 Z"
               id="LiberationSans-6d"
               inkscape:connector-curvature="0"
               style="stroke-linecap:butt;stroke-linejoin:round;stroke-miterlimit:100000" />
            <path
               d="m 40.28125,0 0,33.5 q 0,3.859375 -0.5625,6.4375 -0.5625,2.59375 -1.828125,4.171875 -1.265625,1.59375 -3.34375,2.25 -2.078125,0.65625 -5.15625,0.65625 -3.125,0 -5.640625,-1.09375 Q 21.234375,44.828125 19.453125,42.75 17.671875,40.671875 16.6875,37.625 15.71875,34.578125 15.71875,30.609375 L 15.71875,0 6.9375,0 l 0,41.546875 q 0,1.671875 -0.03125,3.5 Q 6.890625,46.875 6.828125,48.5 6.78125,50.140625 6.734375,51.3125 6.6875,52.484375 6.640625,52.828125 l 8.296875,0 q 0.04687,-0.234375 0.09375,-1.3125 0.0625,-1.078125 0.125,-2.46875 0.07813,-1.390625 0.125,-2.828125 0.04687,-1.4375 0.04687,-2.421875 l 0.15625,0 q 1.265625,2.296875 2.78125,4.15625 1.515625,1.859375 3.515625,3.140625 2,1.296875 4.578125,2 2.59375,0.71875 6.015625,0.71875 4.390625,0 7.5625,-1.078125 3.171875,-1.078125 5.21875,-3.328125 2.0625,-2.234375 3.015625,-5.78125 Q 49.125,40.09375 49.125,35.203125 L 49.125,0 Z"
               id="LiberationSans-6e"
               inkscape:connector-curvature="0"
               style="stroke-linecap:butt;stroke-linejoin:round;stroke-miterlimit:100000" />
            <path
               d="m 51.421875,26.46875 q 0,-13.875 -6.109375,-20.671875 -6.109375,-6.78125 -17.71875,-6.78125 -5.515625,0 -9.875,1.65625 -4.34375,1.671875 -7.34375,5.09375 -3,3.421875 -4.59375,8.5625 -1.578125,5.15625 -1.578125,12.140625 0,27.34375 23.671875,27.34375 6.15625,0 10.625,-1.71875 4.46875,-1.703125 7.328125,-5.125 2.859375,-3.40625 4.21875,-8.546875 1.375,-5.125 1.375,-11.953125 m -9.234375,0 q 0,6.15625 -0.953125,10.15625 -0.953125,4 -2.78125,6.390625 -1.828125,2.390625 -4.46875,3.34375 -2.640625,0.953125 -5.953125,0.953125 -3.375,0 -6.09375,-1 -2.703125,-1 -4.609375,-3.421875 -1.890625,-2.40625 -2.90625,-6.421875 -1,-4 -1,-10 0,-6.15625 1.078125,-10.1875 1.078125,-4.03125 2.953125,-6.421875 1.890625,-2.390625 4.453125,-3.375 2.5625,-0.96875 5.578125,-0.96875 3.375,0 6.109375,0.953125 2.734375,0.953125 4.640625,3.34375 1.90625,2.390625 2.921875,6.4375 1.03125,4.0625 1.03125,10.21875"
               id="LiberationSans-6f"
               inkscape:connector-curvature="0"
               style="stroke-linecap:butt;stroke-linejoin:round;stroke-miterlimit:100000" />
            <path
               d="m 51.21875,19 q 0,-4.734375 -1.546875,-8.453125 Q 48.140625,6.84375 45.1875,4.265625 42.234375,1.703125 37.859375,0.359375 33.5,-0.984375 27.875,-0.984375 q -6.390625,0 -10.765625,1.59375 Q 12.75,2.203125 9.90625,4.8125 7.078125,7.421875 5.65625,10.765625 4.25,14.109375 3.8125,17.671875 L 12.890625,18.5 q 0.390625,-2.734375 1.4375,-4.984375 Q 15.375,11.28125 17.1875,9.671875 19,8.0625 21.625,7.171875 q 2.640625,-0.875 6.25,-0.875 6.640625,0 10.421875,3.265625 3.796875,3.28125 3.796875,9.71875 0,3.8125 -1.6875,6.125 -1.6875,2.328125 -4.203125,3.625 -2.515625,1.296875 -5.46875,1.734375 -2.953125,0.4375 -5.4375,0.4375 l -4.984375,0 0,7.609375 4.78125,0 q 2.5,0 5.171875,0.515625 2.6875,0.515625 4.90625,1.859375 2.234375,1.34375 3.671875,3.640625 1.4375,2.296875 1.4375,5.859375 0,5.515625 -3.25,8.703125 -3.234375,3.203125 -9.640625,3.203125 -5.8125,0 -9.40625,-2.984375 Q 14.40625,56.640625 13.8125,51.21875 l -8.828125,0.6875 q 0.53125,4.546875 2.484375,7.90625 1.953125,3.375 4.953125,5.59375 3.015625,2.21875 6.859375,3.3125 3.859375,1.109375 8.203125,1.109375 5.765625,0 9.90625,-1.453125 4.15625,-1.4375 6.796875,-3.90625 2.640625,-2.453125 3.875,-5.78125 1.25,-3.3125 1.25,-7.078125 0,-3.03125 -0.828125,-5.671875 -0.828125,-2.625 -2.59375,-4.734375 -1.75,-2.09375 -4.46875,-3.609375 -2.703125,-1.515625 -6.515625,-2.296875 l 0,-0.1875 q 4.15625,-0.4375 7.234375,-1.890625 3.078125,-1.4375 5.078125,-3.59375 2,-2.140625 3,-4.875 1,-2.734375 1,-5.75"
               id="LiberationSans-33"
               inkscape:connector-curvature="0"
               style="stroke-linecap:butt;stroke-linejoin:round;stroke-miterlimit:100000" />
            <path
               d="m 6.734375,0 0,72.46875 8.796875,0 0,-72.46875 z"
               id="LiberationSans-6c"
               inkscape:connector-curvature="0"
               style="stroke-linecap:butt;stroke-linejoin:round;stroke-miterlimit:100000" />
            <path
               id="LiberationSans-20"
               d=""
               inkscape:connector-curvature="0"
               style="stroke-linecap:butt;stroke-linejoin:round;stroke-miterlimit:100000" />
            <path
               d="m 67.4375,35.109375 q 0,-8.59375 -2.59375,-15.171875 Q 62.25,13.375 57.75,8.953125 53.265625,4.546875 47.140625,2.265625 41.015625,0 33.9375,0 l -25.734375,0 0,68.796875 22.75,0 q 7.96875,0 14.671875,-1.984375 6.71875,-1.96875 11.546875,-6.09375 4.84375,-4.125 7.546875,-10.484375 2.71875,-6.34375 2.71875,-15.125 m -9.375,0 q 0,6.984375 -2.015625,11.9375 -2,4.953125 -5.609375,8.125 -3.609375,3.171875 -8.640625,4.65625 -5.03125,1.5 -11.03125,1.5 l -13.234375,0 0,-53.859375 15.328125,0 q 5.421875,0 10.03125,1.75 4.625,1.765625 7.984375,5.234375 3.375,3.46875 5.28125,8.640625 1.90625,5.171875 1.90625,12.015625"
               id="LiberationSans-44"
               inkscape:connector-curvature="0"
               style="stroke-linecap:butt;stroke-linejoin:round;stroke-miterlimit:100000" />
            <path
               d="m 38.671875,62.203125 q -5.859375,0 -10.375,-1.953125 Q 23.78125,58.296875 20.71875,54.6875 17.671875,51.078125 16.109375,46 q -1.5625,-5.078125 -1.5625,-11.28125 0,-6.203125 1.6875,-11.359375 Q 17.921875,18.21875 21.0625,14.5 24.21875,10.796875 28.78125,8.734375 33.34375,6.6875 39.0625,6.6875 q 4,0 7.296875,1.046875 3.296875,1.0625 5.953125,2.953125 2.671875,1.90625 4.765625,4.515625 2.109375,2.625 3.71875,5.796875 L 68.40625,17.1875 Q 66.546875,13.328125 63.8125,10 61.078125,6.6875 57.390625,4.25 53.71875,1.8125 49.046875,0.40625 44.390625,-0.984375 38.625,-0.984375 30.28125,-0.984375 24,1.671875 17.71875,4.34375 13.5,9.109375 9.28125,13.875 7.171875,20.40625 q -2.09375,6.546875 -2.09375,14.3125 0,8.0625 2.21875,14.546875 2.21875,6.5 6.484375,11.0625 4.28125,4.5625 10.53125,7.03125 6.25,2.46875 14.265625,2.46875 10.984375,0 18.359375,-4.296875 7.375,-4.296875 10.84375,-12.75 L 58.9375,49.859375 q -0.984375,2.4375 -2.640625,4.65625 -1.65625,2.21875 -4.15625,3.921875 -2.484375,1.71875 -5.828125,2.734375 -3.34375,1.03125 -7.640625,1.03125"
               id="LiberationSans-43"
               inkscape:connector-curvature="0"
               style="stroke-linecap:butt;stroke-linejoin:round;stroke-miterlimit:100000" />
          </defs>
          <g
             style="fill:#262626;stroke-linecap:butt;stroke-linejoin:round;stroke-miterlimit:100000"
             transform="matrix(0.18,0,0,-0.18,180.89344,79.559375)"
             id="g4566">
            <use
               xlink:href="#LiberationSans-43"
               id="use4568"
               style="stroke-linecap:butt;stroke-linejoin:round;stroke-miterlimit:100000"
               x="0"
               y="0"
               width="100%"
               height="100%" />
            <use
               x="72.216797"
               xlink:href="#LiberationSans-6f"
               id="use4570"
               style="stroke-linecap:butt;stroke-linejoin:round;stroke-miterlimit:100000"
               y="0"
               width="100%"
               height="100%" />
            <use
               x="127.83203"
               xlink:href="#LiberationSans-6c"
               id="use4572"
               style="stroke-linecap:butt;stroke-linejoin:round;stroke-miterlimit:100000"
               y="0"
               width="100%"
               height="100%" />
            <use
               x="150.04883"
               xlink:href="#LiberationSans-75"
               id="use4574"
               style="stroke-linecap:butt;stroke-linejoin:round;stroke-miterlimit:100000"
               y="0"
               width="100%"
               height="100%" />
            <use
               x="205.66406"
               xlink:href="#LiberationSans-6d"
               id="use4576"
               style="stroke-linecap:butt;stroke-linejoin:round;stroke-miterlimit:100000"
               y="0"
               width="100%"
               height="100%" />
            <use
               x="288.96484"
               xlink:href="#LiberationSans-6e"
               id="use4578"
               style="stroke-linecap:butt;stroke-linejoin:round;stroke-miterlimit:100000"
               y="0"
               width="100%"
               height="100%" />
            <use
               x="344.58008"
               xlink:href="#LiberationSans-20"
               id="use4580"
               style="stroke-linecap:butt;stroke-linejoin:round;stroke-miterlimit:100000"
               y="0"
               width="100%"
               height="100%" />
            <use
               x="372.36328"
               xlink:href="#LiberationSans-4f"
               id="use4582"
               style="stroke-linecap:butt;stroke-linejoin:round;stroke-miterlimit:100000"
               y="0"
               width="100%"
               height="100%" />
            <use
               x="450.14648"
               xlink:href="#LiberationSans-33"
               id="use4584"
               style="stroke-linecap:butt;stroke-linejoin:round;stroke-miterlimit:100000"
               y="0"
               width="100%"
               height="100%" />
            <use
               x="505.76172"
               xlink:href="#LiberationSans-20"
               id="use4586"
               style="stroke-linecap:butt;stroke-linejoin:round;stroke-miterlimit:100000"
               y="0"
               width="100%"
               height="100%" />
            <use
               x="533.54492"
               xlink:href="#LiberationSans-61"
               id="use4588"
               style="stroke-linecap:butt;stroke-linejoin:round;stroke-miterlimit:100000"
               y="0"
               width="100%"
               height="100%" />
            <use
               x="589.16016"
               xlink:href="#LiberationSans-6e"
               id="use4590"
               style="stroke-linecap:butt;stroke-linejoin:round;stroke-miterlimit:100000"
               y="0"
               width="100%"
               height="100%" />
            <use
               x="644.77539"
               xlink:href="#LiberationSans-6f"
               id="use4592"
               style="stroke-linecap:butt;stroke-linejoin:round;stroke-miterlimit:100000"
               y="0"
               width="100%"
               height="100%" />
            <use
               x="700.39062"
               xlink:href="#LiberationSans-6d"
               id="use4594"
               style="stroke-linecap:butt;stroke-linejoin:round;stroke-miterlimit:100000"
               y="0"
               width="100%"
               height="100%" />
            <use
               x="783.69141"
               xlink:href="#LiberationSans-61"
               id="use4596"
               style="stroke-linecap:butt;stroke-linejoin:round;stroke-miterlimit:100000"
               y="0"
               width="100%"
               height="100%" />
            <use
               x="839.30664"
               xlink:href="#LiberationSans-6c"
               id="use4598"
               style="stroke-linecap:butt;stroke-linejoin:round;stroke-miterlimit:100000"
               y="0"
               width="100%"
               height="100%" />
            <use
               x="861.52344"
               xlink:href="#LiberationSans-79"
               id="use4600"
               style="stroke-linecap:butt;stroke-linejoin:round;stroke-miterlimit:100000"
               y="0"
               width="100%"
               height="100%" />
            <use
               x="911.52344"
               xlink:href="#LiberationSans-20"
               id="use4602"
               style="stroke-linecap:butt;stroke-linejoin:round;stroke-miterlimit:100000"
               y="0"
               width="100%"
               height="100%" />
            <use
               x="939.30664"
               xlink:href="#LiberationSans-28"
               id="use4604"
               style="stroke-linecap:butt;stroke-linejoin:round;stroke-miterlimit:100000"
               y="0"
               width="100%"
               height="100%" />
            <use
               x="972.60742"
               xlink:href="#LiberationSans-44"
               id="use4606"
               style="stroke-linecap:butt;stroke-linejoin:round;stroke-miterlimit:100000"
               y="0"
               width="100%"
               height="100%" />
            <use
               x="1044.8242"
               xlink:href="#LiberationSans-55"
               id="use4608"
               style="stroke-linecap:butt;stroke-linejoin:round;stroke-miterlimit:100000"
               y="0"
               width="100%"
               height="100%" />
            <use
               x="1117.041"
               xlink:href="#LiberationSans-29"
               id="use4610"
               style="stroke-linecap:butt;stroke-linejoin:round;stroke-miterlimit:100000"
               y="0"
               width="100%"
               height="100%" />
          </g>
        </g>
      </g>
      <g
         id="matplotlib.axis_2" />
      <g
         id="QuadMesh_1">
        <path
           clip-path="url(#p35e252126a)"
           d="M 25.21875 39.6  L 77.05875 39.6  L 77.05875 7.2  L 25.21875 7.2  L 25.21875 39.6  "
           style="fill:#3f7f93;"
           id="path4614"
           inkscape:export-xdpi="300"
           inkscape:export-ydpi="300" />
        <path
           clip-path="url(#p35e252126a)"
           d="M 77.05875 39.6  L 128.89875 39.6  L 128.89875 7.2  L 77.05875 7.2  L 77.05875 39.6  "
           style="fill:#679aaa;"
           id="path4616"
           inkscape:export-xdpi="300"
           inkscape:export-ydpi="300" />
        <path
           clip-path="url(#p35e252126a)"
           d="M 128.89875 39.6  L 180.73875 39.6  L 180.73875 7.2  L 128.89875 7.2  L 128.89875 39.6  "
           style="fill:#8fb5c1;"
           id="path4618"
           inkscape:export-xdpi="300"
           inkscape:export-ydpi="300" />
        <path
           clip-path="url(#p35e252126a)"
           d="M 180.73875 39.6  L 232.57875 39.6  L 232.57875 7.2  L 180.73875 7.2  L 180.73875 39.6  "
           style="fill:#b9d1d9;"
           id="path4620"
           inkscape:export-xdpi="300"
           inkscape:export-ydpi="300" />
        <path
           clip-path="url(#p35e252126a)"
           d="M 232.57875 39.6  L 284.41875 39.6  L 284.41875 7.2  L 232.57875 7.2  L 232.57875 39.6  "
           style="fill:#e1edf0;"
           id="path4622"
           inkscape:export-xdpi="300"
           inkscape:export-ydpi="300" />
        <path
           clip-path="url(#p35e252126a)"
           d="m 336.25875,39.6 51.84,0 0,-32.4 -51.84,0 0,32.4"
           style="fill:#e9c0b6;stroke-linecap:butt;stroke-linejoin:round;stroke-miterlimit:100000"
           id="path4626"
           inkscape:connector-curvature="0"
           transform="translate(-51.858982,0)"
           inkscape:export-xdpi="300"
           inkscape:export-ydpi="300" />
      </g>
      <g
         id="patch_3">
        <path
           d="M 25.21875 39.6  L 77.05875 39.6  L 491.77875 39.6  L 543.61875 39.6  L 543.61875 7.2  L 491.77875 7.2  L 77.05875 7.2  L 25.21875 7.2  L 25.21875 39.6  z "
           style="fill:none;"
           id="path4635" />
      </g>
    </g>
  </g>
  <defs
     id="defs4637">
    <clipPath
       id="p35e252126a">
      <rect
         height="32.4"
         width="518.4"
         x="25.21875"
         y="7.2"
         id="rect4640" />
    </clipPath>
  </defs>
</svg>
